Title: Ex (2010)
Year: 2010
Country: Hong Kong
Language: Cantonese
Film Genre: Romance
Subtitles: English(srt/idx,sub), Chinese(idx,sub)
Director: Heiward Mak
Cast: Gillian Chung, William Chan Wai-Ting, Michelle Wai
IMDB Link: http://www.imdb.com/title/tt1611818/


Plot or synopsis
A young woman ditches her boy toy at the airport and runs into her ex with his present girlfriend and moves into their new home, which brings back happy memories with this and several other exes, and ignites that old flame…. Director Heiward Mak, who also co-pens Love in a Puff in this festival, demonstrates the sharpest eyes and ears in the trade for capturing the lingo, mannerism and mindset of todayâ™s youth. As the pretty young thing hobnobs from one romance to another, telling herself that itâ™s all part of a sentimental education and a journey, the film steps back to look at a soul going around in circles with true candor and honesty.


General
Complete name : Ex.2010.DVDRip.x264.AC3-BAUM.mkv
Format : Matroska
File size : 1.37 GiB
Duration : 1h 36mn
Overall bit rate : 2 034 Kbps
Encoded date : UTC 2011-01-17 18:47:32
Writing application : mkvmerge v4.4.0 ('Die Wiederkehr') built on Oct 31 2010 21:52:48
Writing library : libebml v1.0.0 + libmatroska v1.0.0

Video #0
Format : AVC
Format/Info : Advanced Video Codec
Format profile : High@L3.0
Format settings, CABAC : Yes
Format settings, ReFrames : 4 frames
Format settings, GOP : M=4, N=5
Muxing mode : Container profile=Unknown@3.0
Codec ID : V_MPEG4/ISO/AVC
Duration : 1h 36mn
Bit rate : 1 649 Kbps
Width : 720 pixels
Height : 400 pixels
Display aspect ratio : 16:9
Frame rate : 23.976 fps
Color space : YUV
Chroma subsampling : 4:2:0
Bit depth : 8 bits
Scan type : Progressive
Bits/(Pixel*Frame) : 0.239
Stream size : 1.08 GiB (79%)
Writing library : x264 core 112 r1867 22bfd31

Audio #1
ID : 2
Format : AC-3
Format/Info : Audio Coding 3
Mode extension : CM (complete main)
Codec ID : A_AC3
Duration : 1h 36mn
Bit rate mode : Constant
Bit rate : 384 Kbps
Channel(s) : 2 channels
Channel positions : Front: L R
Sampling rate : 48.0 KHz
Bit depth : 16 bits
Stream size : 265 MiB (19%)